<svg xmlns="http://www.w3.org/2000/svg" xmlns:xlink="http://www.w3.org/1999/xlink" width="1000" zoomAndPan="magnify" viewBox="0 0 750 80.999996" height="108" preserveAspectRatio="xMidYMid meet" version="1.2"><defs><clipPath id="39e110fc9e"><path d="M 31 1 L 105.785156 1 L 105.785156 77.929688 L 31 77.929688 Z M 31 1 "/></clipPath><clipPath id="d40bb25c6d"><path d="M 36.40625 1.261719 L 100.535156 1.261719 C 101.925781 1.261719 103.261719 1.8125 104.246094 2.796875 C 105.230469 3.78125 105.785156 5.117188 105.785156 6.511719 L 105.785156 72.464844 C 105.785156 73.859375 105.230469 75.191406 104.246094 76.175781 C 103.261719 77.160156 101.925781 77.714844 100.535156 77.714844 L 36.40625 77.714844 C 35.015625 77.714844 33.679688 77.160156 32.695312 76.175781 C 31.710938 75.191406 31.15625 73.859375 31.15625 72.464844 L 31.15625 6.511719 C 31.15625 5.117188 31.710938 3.78125 32.695312 2.796875 C 33.679688 1.8125 35.015625 1.261719 36.40625 1.261719 Z M 36.40625 1.261719 "/></clipPath><clipPath id="6f3dbf2ef7"><path d="M 34.941406 17.21875 L 50 17.21875 L 50 64 L 34.941406 64 Z M 34.941406 17.21875 "/></clipPath><clipPath id="5f5dfd3c95"><path d="M 87 17.21875 L 101.648438 17.21875 L 101.648438 64 L 87 64 Z M 87 17.21875 "/></clipPath></defs><g id="fa11fd4f4a"><g style="fill:#000000;fill-opacity:1;"><g transform="translate(143.111621, 49.599056)"><path style="stroke:none" d="M 15.296875 -4.21875 L 6.15625 -4.21875 L 4.421875 0 L -0.25 0 L 8.515625 -19.6875 L 13.015625 -19.6875 L 21.828125 0 L 17.046875 0 Z M 13.859375 -7.671875 L 10.75 -15.21875 L 7.625 -7.671875 Z M 13.859375 -7.671875 "/></g></g><g style="fill:#000000;fill-opacity:1;"><g transform="translate(164.198876, 49.599056)"><path style="stroke:none" d="M 2.328125 -19.6875 L 6.890625 -19.6875 L 6.890625 0 L 2.328125 0 Z M 2.328125 -19.6875 "/></g></g><g style="fill:#000000;fill-opacity:1;"><g transform="translate(172.971082, 49.599056)"><path style="stroke:none" d="M 8.796875 0.34375 C 7.242188 0.34375 5.738281 0.132812 4.28125 -0.28125 C 2.832031 -0.707031 1.664062 -1.257812 0.78125 -1.9375 L 2.328125 -5.375 C 3.171875 -4.75 4.175781 -4.25 5.34375 -3.875 C 6.507812 -3.5 7.671875 -3.3125 8.828125 -3.3125 C 10.117188 -3.3125 11.070312 -3.503906 11.6875 -3.890625 C 12.3125 -4.273438 12.625 -4.785156 12.625 -5.421875 C 12.625 -5.890625 12.441406 -6.28125 12.078125 -6.59375 C 11.710938 -6.90625 11.242188 -7.15625 10.671875 -7.34375 C 10.097656 -7.53125 9.328125 -7.734375 8.359375 -7.953125 C 6.859375 -8.316406 5.628906 -8.675781 4.671875 -9.03125 C 3.710938 -9.382812 2.890625 -9.953125 2.203125 -10.734375 C 1.523438 -11.523438 1.1875 -12.578125 1.1875 -13.890625 C 1.1875 -15.035156 1.492188 -16.070312 2.109375 -17 C 2.722656 -17.925781 3.65625 -18.660156 4.90625 -19.203125 C 6.15625 -19.753906 7.679688 -20.03125 9.484375 -20.03125 C 10.734375 -20.03125 11.957031 -19.878906 13.15625 -19.578125 C 14.363281 -19.273438 15.414062 -18.84375 16.3125 -18.28125 L 14.90625 -14.828125 C 13.082031 -15.859375 11.265625 -16.375 9.453125 -16.375 C 8.171875 -16.375 7.222656 -16.164062 6.609375 -15.75 C 6.003906 -15.332031 5.703125 -14.789062 5.703125 -14.125 C 5.703125 -13.445312 6.050781 -12.941406 6.75 -12.609375 C 7.457031 -12.285156 8.535156 -11.960938 9.984375 -11.640625 C 11.484375 -11.285156 12.710938 -10.929688 13.671875 -10.578125 C 14.628906 -10.222656 15.445312 -9.660156 16.125 -8.890625 C 16.8125 -8.117188 17.15625 -7.078125 17.15625 -5.765625 C 17.15625 -4.640625 16.835938 -3.613281 16.203125 -2.6875 C 15.578125 -1.757812 14.632812 -1.019531 13.375 -0.46875 C 12.125 0.0703125 10.597656 0.34375 8.796875 0.34375 Z M 8.796875 0.34375 "/></g></g><g style="fill:#000000;fill-opacity:1;"><g transform="translate(190.459416, 49.599056)"><path style="stroke:none" d="M 20.390625 -19.6875 L 20.390625 0 L 15.828125 0 L 15.828125 -8.078125 L 6.890625 -8.078125 L 6.890625 0 L 2.328125 0 L 2.328125 -19.6875 L 6.890625 -19.6875 L 6.890625 -11.921875 L 15.828125 -11.921875 L 15.828125 -19.6875 Z M 20.390625 -19.6875 "/></g></g><g style="fill:#000000;fill-opacity:1;"><g transform="translate(212.727587, 49.599056)"><path style="stroke:none" d="M 32.09375 -19.6875 L 25.65625 0 L 20.75 0 L 16.421875 -13.328125 L 11.953125 0 L 7.09375 0 L 0.625 -19.6875 L 5.34375 -19.6875 L 9.78125 -5.84375 L 14.421875 -19.6875 L 18.640625 -19.6875 L 23.140625 -5.734375 L 27.734375 -19.6875 Z M 32.09375 -19.6875 "/></g></g><g style="fill:#000000;fill-opacity:1;"><g transform="translate(244.977119, 49.599056)"><path style="stroke:none" d="M 15.296875 -4.21875 L 6.15625 -4.21875 L 4.421875 0 L -0.25 0 L 8.515625 -19.6875 L 13.015625 -19.6875 L 21.828125 0 L 17.046875 0 Z M 13.859375 -7.671875 L 10.75 -15.21875 L 7.625 -7.671875 Z M 13.859375 -7.671875 "/></g></g><g style="fill:#000000;fill-opacity:1;"><g transform="translate(266.064374, 49.599056)"><path style="stroke:none" d="M 14.875 0 L 11.078125 -5.484375 L 6.890625 -5.484375 L 6.890625 0 L 2.328125 0 L 2.328125 -19.6875 L 10.859375 -19.6875 C 12.597656 -19.6875 14.109375 -19.394531 15.390625 -18.8125 C 16.679688 -18.226562 17.671875 -17.398438 18.359375 -16.328125 C 19.054688 -15.265625 19.40625 -14.003906 19.40625 -12.546875 C 19.40625 -11.078125 19.050781 -9.8125 18.34375 -8.75 C 17.644531 -7.695312 16.648438 -6.890625 15.359375 -6.328125 L 19.765625 0 Z M 14.796875 -12.546875 C 14.796875 -13.648438 14.4375 -14.492188 13.71875 -15.078125 C 13.007812 -15.671875 11.972656 -15.96875 10.609375 -15.96875 L 6.890625 -15.96875 L 6.890625 -9.109375 L 10.609375 -9.109375 C 11.972656 -9.109375 13.007812 -9.40625 13.71875 -10 C 14.4375 -10.601562 14.796875 -11.453125 14.796875 -12.546875 Z M 14.796875 -12.546875 "/></g></g><g style="fill:#000000;fill-opacity:1;"><g transform="translate(286.280032, 49.599056)"><path style="stroke:none" d="M 11.78125 -6.96875 L 11.78125 0 L 7.234375 0 L 7.234375 -7.03125 L -0.390625 -19.6875 L 4.4375 -19.6875 L 9.703125 -10.9375 L 14.96875 -19.6875 L 19.4375 -19.6875 Z M 11.78125 -6.96875 "/></g></g><g style="fill:#000000;fill-opacity:1;"><g transform="translate(304.836817, 49.599056)"><path style="stroke:none" d="M 15.296875 -4.21875 L 6.15625 -4.21875 L 4.421875 0 L -0.25 0 L 8.515625 -19.6875 L 13.015625 -19.6875 L 21.828125 0 L 17.046875 0 Z M 13.859375 -7.671875 L 10.75 -15.21875 L 7.625 -7.671875 Z M 13.859375 -7.671875 "/></g></g><g style="fill:#000000;fill-opacity:1;"><g transform="translate(325.930432, 49.599056)"><path style="stroke:none" d=""/></g></g><g style="fill:#000000;fill-opacity:1;"><g transform="translate(333.437404, 49.599056)"><path style="stroke:none" d=""/></g></g><g style="fill:#000000;fill-opacity:1;"><g transform="translate(340.948647, 49.599056)"><path style="stroke:none" d="M 9.5 -7.734375 L 6.859375 -4.984375 L 6.859375 0 L 2.328125 0 L 2.328125 -19.6875 L 6.859375 -19.6875 L 6.859375 -10.484375 L 15.578125 -19.6875 L 20.640625 -19.6875 L 12.484375 -10.90625 L 21.125 0 L 15.8125 0 Z M 9.5 -7.734375 "/></g></g><g style="fill:#000000;fill-opacity:1;"><g transform="translate(361.304892, 49.599056)"><path style="stroke:none" d="M 11.078125 0.34375 C 8.265625 0.34375 6.078125 -0.429688 4.515625 -1.984375 C 2.953125 -3.546875 2.171875 -5.769531 2.171875 -8.65625 L 2.171875 -19.6875 L 6.71875 -19.6875 L 6.71875 -8.828125 C 6.71875 -5.304688 8.179688 -3.546875 11.109375 -3.546875 C 12.535156 -3.546875 13.625 -3.972656 14.375 -4.828125 C 15.125 -5.679688 15.5 -7.015625 15.5 -8.828125 L 15.5 -19.6875 L 20 -19.6875 L 20 -8.65625 C 20 -5.769531 19.210938 -3.546875 17.640625 -1.984375 C 16.078125 -0.429688 13.890625 0.34375 11.078125 0.34375 Z M 11.078125 0.34375 "/></g></g><g style="fill:#000000;fill-opacity:1;"><g transform="translate(383.010715, 49.599056)"><path style="stroke:none" d="M 20.25 0 L 20.21875 -11.8125 L 14.421875 -2.078125 L 12.375 -2.078125 L 6.609375 -11.5625 L 6.609375 0 L 2.328125 0 L 2.328125 -19.6875 L 6.109375 -19.6875 L 13.46875 -7.453125 L 20.734375 -19.6875 L 24.46875 -19.6875 L 24.53125 0 Z M 20.25 0 "/></g></g><g style="fill:#000000;fill-opacity:1;"><g transform="translate(409.412008, 49.599056)"><path style="stroke:none" d="M 15.296875 -4.21875 L 6.15625 -4.21875 L 4.421875 0 L -0.25 0 L 8.515625 -19.6875 L 13.015625 -19.6875 L 21.828125 0 L 17.046875 0 Z M 13.859375 -7.671875 L 10.75 -15.21875 L 7.625 -7.671875 Z M 13.859375 -7.671875 "/></g></g><g style="fill:#000000;fill-opacity:1;"><g transform="translate(430.499263, 49.599056)"><path style="stroke:none" d="M 14.875 0 L 11.078125 -5.484375 L 6.890625 -5.484375 L 6.890625 0 L 2.328125 0 L 2.328125 -19.6875 L 10.859375 -19.6875 C 12.597656 -19.6875 14.109375 -19.394531 15.390625 -18.8125 C 16.679688 -18.226562 17.671875 -17.398438 18.359375 -16.328125 C 19.054688 -15.265625 19.40625 -14.003906 19.40625 -12.546875 C 19.40625 -11.078125 19.050781 -9.8125 18.34375 -8.75 C 17.644531 -7.695312 16.648438 -6.890625 15.359375 -6.328125 L 19.765625 0 Z M 14.796875 -12.546875 C 14.796875 -13.648438 14.4375 -14.492188 13.71875 -15.078125 C 13.007812 -15.671875 11.972656 -15.96875 10.609375 -15.96875 L 6.890625 -15.96875 L 6.890625 -9.109375 L 10.609375 -9.109375 C 11.972656 -9.109375 13.007812 -9.40625 13.71875 -10 C 14.4375 -10.601562 14.796875 -11.453125 14.796875 -12.546875 Z M 14.796875 -12.546875 "/></g></g><g style="fill:#000000;fill-opacity:1;"><g transform="translate(450.717697, 49.599056)"><path style="stroke:none" d=""/></g></g><g style="fill:#000000;fill-opacity:1;"><g transform="translate(458.224669, 49.599056)"><path style="stroke:none" d=""/></g></g><g style="fill:#000000;fill-opacity:1;"><g transform="translate(465.735911, 49.599056)"><path style="stroke:none" d="M 15.296875 -4.21875 L 6.15625 -4.21875 L 4.421875 0 L -0.25 0 L 8.515625 -19.6875 L 13.015625 -19.6875 L 21.828125 0 L 17.046875 0 Z M 13.859375 -7.671875 L 10.75 -15.21875 L 7.625 -7.671875 Z M 13.859375 -7.671875 "/></g></g><g style="fill:#000000;fill-opacity:1;"><g transform="translate(486.823166, 49.599056)"><path style="stroke:none" d="M 14.875 0 L 11.078125 -5.484375 L 6.890625 -5.484375 L 6.890625 0 L 2.328125 0 L 2.328125 -19.6875 L 10.859375 -19.6875 C 12.597656 -19.6875 14.109375 -19.394531 15.390625 -18.8125 C 16.679688 -18.226562 17.671875 -17.398438 18.359375 -16.328125 C 19.054688 -15.265625 19.40625 -14.003906 19.40625 -12.546875 C 19.40625 -11.078125 19.050781 -9.8125 18.34375 -8.75 C 17.644531 -7.695312 16.648438 -6.890625 15.359375 -6.328125 L 19.765625 0 Z M 14.796875 -12.546875 C 14.796875 -13.648438 14.4375 -14.492188 13.71875 -15.078125 C 13.007812 -15.671875 11.972656 -15.96875 10.609375 -15.96875 L 6.890625 -15.96875 L 6.890625 -9.109375 L 10.609375 -9.109375 C 11.972656 -9.109375 13.007812 -9.40625 13.71875 -10 C 14.4375 -10.601562 14.796875 -11.453125 14.796875 -12.546875 Z M 14.796875 -12.546875 "/></g></g><g style="fill:#000000;fill-opacity:1;"><g transform="translate(507.038824, 49.599056)"><path style="stroke:none" d="M 21.265625 -19.6875 L 12.734375 0 L 8.234375 0 L -0.25 -19.6875 L 4.671875 -19.6875 L 10.65625 -5.625 L 16.734375 -19.6875 Z M 21.265625 -19.6875 "/></g></g><g style="fill:#000000;fill-opacity:1;"><g transform="translate(527.563755, 49.599056)"><path style="stroke:none" d="M 2.328125 -19.6875 L 6.890625 -19.6875 L 6.890625 0 L 2.328125 0 Z M 2.328125 -19.6875 "/></g></g><g style="fill:#000000;fill-opacity:1;"><g transform="translate(536.335961, 49.599056)"><path style="stroke:none" d="M 20.390625 -19.6875 L 20.390625 0 L 16.65625 0 L 6.828125 -11.953125 L 6.828125 0 L 2.328125 0 L 2.328125 -19.6875 L 6.109375 -19.6875 L 15.890625 -7.734375 L 15.890625 -19.6875 Z M 20.390625 -19.6875 "/></g></g><g style="fill:#000000;fill-opacity:1;"><g transform="translate(558.604132, 49.599056)"><path style="stroke:none" d="M 2.328125 -19.6875 L 11.28125 -19.6875 C 13.414062 -19.6875 15.300781 -19.273438 16.9375 -18.453125 C 18.582031 -17.640625 19.859375 -16.492188 20.765625 -15.015625 C 21.679688 -13.535156 22.140625 -11.8125 22.140625 -9.84375 C 22.140625 -7.875 21.679688 -6.148438 20.765625 -4.671875 C 19.859375 -3.191406 18.582031 -2.039062 16.9375 -1.21875 C 15.300781 -0.40625 13.414062 0 11.28125 0 L 2.328125 0 Z M 11.046875 -3.734375 C 13.015625 -3.734375 14.582031 -4.28125 15.75 -5.375 C 16.925781 -6.476562 17.515625 -7.96875 17.515625 -9.84375 C 17.515625 -11.71875 16.925781 -13.203125 15.75 -14.296875 C 14.582031 -15.398438 13.015625 -15.953125 11.046875 -15.953125 L 6.890625 -15.953125 L 6.890625 -3.734375 Z M 11.046875 -3.734375 "/></g></g><g clip-rule="nonzero" clip-path="url(#39e110fc9e)"><g clip-rule="nonzero" clip-path="url(#d40bb25c6d)"><path style=" stroke:none;fill-rule:nonzero;fill:#000000;fill-opacity:1;" d="M 31.15625 1.261719 L 105.785156 1.261719 L 105.785156 77.636719 L 31.15625 77.636719 Z M 31.15625 1.261719 "/></g></g><g clip-rule="nonzero" clip-path="url(#6f3dbf2ef7)"><path style=" stroke:none;fill-rule:evenodd;fill:#efefef;fill-opacity:1;" d="M 47.875 22.386719 L 49.167969 22.386719 L 49.167969 17.21875 L 47.875 17.21875 C 43.59375 17.21875 40.125 20.6875 40.125 24.96875 L 40.125 34.011719 C 40.125 34.828125 39.742188 35.59375 39.089844 36.082031 L 35.988281 38.40625 C 35.371094 38.871094 34.992188 39.589844 34.957031 40.367188 C 34.925781 41.140625 35.242188 41.890625 35.824219 42.40625 L 39.257812 45.457031 C 39.808594 45.945312 40.125 46.648438 40.125 47.386719 L 40.125 55.976562 C 40.125 60.257812 43.59375 63.726562 47.875 63.726562 L 49.167969 63.726562 L 49.167969 58.558594 L 47.875 58.558594 C 46.449219 58.558594 45.292969 57.402344 45.292969 55.976562 L 45.292969 47.386719 C 45.292969 45.171875 44.34375 43.0625 42.6875 41.59375 L 41.621094 40.644531 L 42.191406 40.214844 C 44.144531 38.75 45.292969 36.453125 45.292969 34.011719 L 45.292969 24.96875 C 45.292969 23.542969 46.449219 22.386719 47.875 22.386719 Z M 47.875 22.386719 "/></g><g clip-rule="nonzero" clip-path="url(#5f5dfd3c95)"><path style=" stroke:none;fill-rule:evenodd;fill:#efefef;fill-opacity:1;" d="M 89.140625 22.386719 L 87.847656 22.386719 L 87.847656 17.21875 L 89.140625 17.21875 C 93.421875 17.21875 96.890625 20.6875 96.890625 24.96875 L 96.890625 34.011719 C 96.890625 34.828125 97.273438 35.59375 97.925781 36.082031 L 101.027344 38.40625 C 101.648438 38.871094 102.023438 39.589844 102.058594 40.367188 C 102.089844 41.140625 101.773438 41.890625 101.191406 42.40625 L 97.757812 45.457031 C 97.207031 45.945312 96.890625 46.648438 96.890625 47.386719 L 96.890625 55.976562 C 96.890625 60.257812 93.421875 63.726562 89.140625 63.726562 L 87.847656 63.726562 L 87.847656 58.558594 L 89.140625 58.558594 C 90.566406 58.558594 91.722656 57.402344 91.722656 55.976562 L 91.722656 47.386719 C 91.722656 45.171875 92.671875 43.0625 94.328125 41.59375 L 95.394531 40.644531 L 94.824219 40.214844 C 92.871094 38.75 91.722656 36.453125 91.722656 34.011719 L 91.722656 24.96875 C 91.722656 23.542969 90.566406 22.386719 89.140625 22.386719 Z M 89.140625 22.386719 "/></g><g style="fill:#ffffff;fill-opacity:1;"><g transform="translate(48.015463, 49.271092)"><path style="stroke:none" d="M 14.609375 0 L 11.171875 0 L 9.5 -4.875 L 4.484375 -4.875 L 2.734375 0 L 0.046875 0 L 6.0625 -17 L 8.59375 -17 Z M 8.734375 -7.15625 C 7.984375 -9.425781 7.394531 -11.359375 6.96875 -12.953125 C 6.4375 -11.015625 5.867188 -9.082031 5.265625 -7.15625 Z M 8.734375 -7.15625 "/></g></g><g style="fill:#ffffff;fill-opacity:1;"><g transform="translate(61.736817, 49.271092)"><path style="stroke:none" d="M 13.859375 0 L 10.140625 0 L 4.734375 -8.609375 L 4.734375 0 L 1.53125 0 L 1.53125 -15.578125 C 1.53125 -15.597656 1.503906 -15.710938 1.453125 -15.921875 C 1.398438 -16.140625 1.34375 -16.363281 1.28125 -16.59375 C 1.226562 -16.832031 1.203125 -16.96875 1.203125 -17 L 4.734375 -17 L 4.734375 -9.40625 L 10.40625 -17 L 13.375 -17 L 7.84375 -9.5625 Z M 13.859375 0 "/></g></g><g style="fill:#ffffff;fill-opacity:1;"><g transform="translate(74.36696, 49.271092)"><path style="stroke:none" d="M 14.609375 0 L 11.171875 0 L 9.5 -4.875 L 4.484375 -4.875 L 2.734375 0 L 0.046875 0 L 6.0625 -17 L 8.59375 -17 Z M 8.734375 -7.15625 C 7.984375 -9.425781 7.394531 -11.359375 6.96875 -12.953125 C 6.4375 -11.015625 5.867188 -9.082031 5.265625 -7.15625 Z M 8.734375 -7.15625 "/></g></g></g></svg>